<svg width="99" height="29" viewBox="0 0 99 29" fill="none" xmlns="http://www.w3.org/2000/svg">
<g clip-path="url(#clip0_198_7250)">
<g filter="url(#filter0_d_198_7250)">
<path d="M14.6408 9.12746C13.1386 7.33272 10.2048 4.81411 11.3798 2.46449C11.713 1.79745 12.3267 1.30988 13.0381 1.07806C13.2602 1.00477 13.2782 0.701161 13.0681 0.599459C10.6895 -0.562635 8.09032 -0.0122478 6.33452 2.0517C4.9539 3.67445 4.62975 6.1796 5.188 8.20018C5.32306 8.68775 5.59619 9.1155 5.73125 9.59858C4.06699 9.12148 2.22566 9.23365 0.887047 10.4182C1.83098 10.6799 2.60683 11.0882 2.96699 12.0514C3.73684 14.1079 1.75444 15.7291 0.87204 17.3863C-1.23192 21.3377 0.666447 26.2612 4.5187 28.2669C5.21651 28.6303 6.0659 29.0012 6.85676 28.9548C5.06495 27.6327 4.00847 25.2502 4.47668 23.0472C5.20901 19.5983 9.61802 18.33 9.3554 14.4788C9.32388 14.0121 9.16181 13.5126 9.10778 13.046C9.23834 12.9054 10.3729 14.069 10.4944 14.2066C11.1187 14.9125 13.6759 17.3354 15.1961 21.0744C16.1055 23.3104 15.3671 25.9995 13.8244 27.7045C13.3742 28.2026 12.816 28.5645 12.3087 28.9952C16.164 28.0724 19.0828 24.7626 19.566 20.8366C20.1153 16.3588 17.369 12.3789 14.6438 9.12298L14.6408 9.12746ZM4.13002 10.5752C3.94694 10.5648 3.79537 10.478 3.73984 10.3658C3.80887 10.2611 3.96795 10.1923 4.14953 10.2028C4.33261 10.2133 4.48418 10.3 4.53971 10.4122C4.47068 10.5169 4.3116 10.5857 4.13002 10.5752ZM9.99769 1.38765C9.77709 1.49533 9.54748 1.50132 9.41542 1.41756C9.43343 1.26351 9.579 1.08853 9.7981 0.982337C10.0187 0.874653 10.2483 0.86867 10.3804 0.952425C10.3624 1.10647 10.2168 1.28146 9.99769 1.38765Z" fill="url(#paint0_linear_198_7250)"/>
<path d="M14.6538 9.12721C13.1516 7.33247 10.2178 4.81385 11.3928 2.46424C11.726 1.79719 12.3398 1.30962 13.0511 1.0778L13.6168 0.892343C11.1002 -0.636177 8.2354 -0.166554 6.34755 2.05294C4.96692 3.67569 4.64277 6.18084 5.20102 8.20142C5.22954 8.30462 5.26405 8.40482 5.30307 8.50354C5.5762 9.20947 6.0189 9.83763 6.56965 10.3581C7.30498 11.0536 8.12435 11.6713 8.76965 12.4564C8.93172 12.6539 10.4009 14.0941 10.5044 14.2108C11.1287 14.9167 13.6859 17.3396 15.2061 21.0787C16.1155 23.3146 15.3772 26.0037 13.8344 27.7087C13.3842 28.2068 12.826 28.5687 12.3188 28.9995C16.174 28.0767 19.0928 24.7669 19.5761 20.8409C20.1253 16.363 17.3791 12.3832 14.6538 9.12721ZM10.0002 1.38889C9.77961 1.49657 9.55 1.50255 9.41794 1.4188C9.43595 1.26475 9.58152 1.08976 9.80061 0.983576C10.0212 0.875891 10.2508 0.869909 10.3829 0.953663C10.3649 1.10771 10.2193 1.2827 10.0002 1.38889Z" fill="url(#paint1_linear_198_7250)"/>
</g>
<g filter="url(#filter1_d_198_7250)">
<path d="M51.4914 13.6426H49.9111V15.0829H51.4914V13.6426Z" fill="#F32D18"/>
<path d="M52.6739 13.6426V15.1696H52.6694V22.38H54.4267V15.0814H56.7348V13.6426H52.6739Z" fill="#F32D18"/>
<path d="M63.2793 17.5106C63.1667 17.4822 63.0317 17.4537 62.8756 17.4253C62.7195 17.3969 62.562 17.3715 62.4014 17.3476C62.2408 17.3236 62.0847 17.3072 61.9347 17.2982C61.7831 17.2892 61.6555 17.2847 61.552 17.2847C61.3059 17.2847 61.0658 17.2967 60.8302 17.3206C60.5946 17.3446 60.353 17.3894 60.1083 17.4552V22.3818H58.3525V16.1855C58.8147 16.0165 59.289 15.8804 59.7767 15.7757C60.2629 15.6725 60.8317 15.6201 61.483 15.6201C61.5775 15.6201 61.7126 15.6246 61.8866 15.6336C62.0607 15.6426 62.2483 15.659 62.4464 15.6829C62.6445 15.7069 62.8456 15.7353 63.0482 15.7682C63.2508 15.8011 63.4324 15.846 63.5929 15.9028L63.2808 17.5121L63.2793 17.5106Z" fill="#F32D18"/>
<path d="M67.5712 15.5767C68.1189 15.5767 68.5736 15.6395 68.9383 15.7666C69.3015 15.8938 69.5926 16.0717 69.8087 16.3036C70.0263 16.5339 70.1824 16.8166 70.2769 17.1501C70.3715 17.4836 70.418 17.859 70.418 18.2718V22.2247C70.1629 22.2815 69.7847 22.3473 69.285 22.4221C68.7837 22.4969 68.2225 22.5343 67.5997 22.5343C67.175 22.5343 66.7893 22.4969 66.4457 22.4221C66.1005 22.3473 65.8064 22.2217 65.5603 22.0482C65.3142 21.8747 65.1251 21.6489 64.993 21.3707C64.861 21.0925 64.7949 20.7515 64.7949 20.3477C64.7949 19.9439 64.87 19.6373 65.0215 19.3741C65.1731 19.1108 65.3757 18.8985 65.6308 18.7384C65.8859 18.5784 66.1786 18.4632 66.5087 18.3929C66.8389 18.3226 67.184 18.2867 67.5427 18.2867C67.9959 18.2867 68.3966 18.3241 68.7462 18.3989V18.1865C68.7462 17.8575 68.6427 17.5823 68.4341 17.361C68.227 17.1396 67.8668 17.0289 67.3581 17.0289C67.0279 17.0289 66.7083 17.0529 66.4022 17.0992C66.096 17.1471 65.8469 17.2024 65.6578 17.2682L65.4177 15.8713C65.6353 15.7965 65.9414 15.7277 66.3376 15.6664C66.7338 15.6051 67.145 15.5752 67.5697 15.5752L67.5712 15.5767ZM67.7258 21.1374C67.9148 21.1374 68.0994 21.1359 68.278 21.1299C68.4581 21.1254 68.6127 21.1135 68.7462 21.094V19.57C68.6337 19.5505 68.4956 19.5341 68.335 19.5206C68.1745 19.5072 68.0274 19.4997 67.8953 19.4997C67.7152 19.4997 67.5412 19.5117 67.3716 19.5356C67.202 19.5595 67.0535 19.5984 66.9259 19.6552C66.7983 19.7121 66.6963 19.7913 66.6213 19.8945C66.5462 19.9977 66.5087 20.1338 66.5087 20.3043C66.5087 20.605 66.6213 20.8188 66.8494 20.946C67.076 21.0731 67.3686 21.1359 67.7273 21.1359L67.7258 21.1374Z" fill="#F32D18"/>
<path d="M71.8765 19.0634C71.8765 18.5833 71.9516 18.1317 72.1031 17.7084C72.2547 17.2851 72.4858 16.9157 72.7965 16.6001C73.1086 16.2846 73.5018 16.0348 73.979 15.8523C74.4562 15.6684 75.025 15.5771 75.6853 15.5771C76.0814 15.5771 76.4401 15.6056 76.7613 15.6624C77.0824 15.7192 77.4081 15.8135 77.7382 15.9451L77.3555 17.342C77.1664 17.2762 76.9563 17.2178 76.7252 17.1655C76.4941 17.1146 76.1985 17.0877 75.8398 17.0877C75.4241 17.0877 75.0775 17.1371 74.7984 17.2358C74.5192 17.3345 74.2956 17.4706 74.1261 17.6456C73.9565 17.8206 73.8334 18.0285 73.7584 18.2737C73.6834 18.519 73.6458 18.7823 73.6458 19.0649C73.6458 19.6766 73.8184 20.1567 74.1621 20.5052C74.5072 20.8537 75.094 21.0272 75.9254 21.0272C76.1985 21.0272 76.4851 21.0077 76.7823 20.9703C77.0794 20.933 77.351 20.8716 77.5971 20.7864L77.8523 22.2117C77.6061 22.3059 77.309 22.3837 76.9593 22.445C76.6097 22.5063 76.1985 22.5363 75.7273 22.5363C75.0475 22.5363 74.4637 22.4465 73.9775 22.2685C73.4913 22.0906 73.0921 21.8453 72.7799 21.5342C72.4678 21.2231 72.2397 20.8567 72.0926 20.4334C71.9456 20.0102 71.8735 19.554 71.8735 19.0634H71.8765Z" fill="#F32D18"/>
<path d="M80.9843 18.3725C81.1539 18.1751 81.3264 17.9657 81.502 17.7443C81.6761 17.523 81.8472 17.2956 82.0122 17.0593C82.1773 16.8245 82.3364 16.5957 82.4865 16.3743C82.638 16.153 82.7701 15.9436 82.8826 15.7462H84.9791C84.8095 15.963 84.6159 16.1979 84.3983 16.4521C84.1807 16.7064 83.9571 16.9651 83.726 17.2283C83.4949 17.4916 83.2638 17.7458 83.0327 17.9911C82.8016 18.2364 82.5915 18.4622 82.4024 18.6686C82.638 18.8944 82.8931 19.1652 83.1678 19.4807C83.4409 19.7963 83.711 20.1223 83.9751 20.4619C84.2393 20.7999 84.4824 21.1394 84.7045 21.4774C84.9266 21.8169 85.1036 22.1175 85.2357 22.3807H83.2383C83.1242 22.1459 82.9757 21.8797 82.7926 21.5836C82.608 21.2874 82.4129 20.9958 82.2043 20.7086C81.9972 20.4215 81.7871 20.1493 81.574 19.8905C81.3609 19.6318 81.1659 19.4179 80.9858 19.2489V22.3822H79.23V12.8821L80.9858 12.5859V18.374L80.9843 18.3725Z" fill="#F32D18"/>
<path d="M85.857 19.1203C85.857 18.537 85.947 18.024 86.1256 17.5813C86.3057 17.1386 86.5413 16.7692 86.834 16.473C87.1266 16.1769 87.4612 15.9525 87.8394 15.803C88.2176 15.6534 88.6048 15.5771 89.0009 15.5771C89.9824 15.5771 90.7282 15.8658 91.2385 16.4446C91.7487 17.0234 92.0038 17.8684 92.0038 18.9782C92.0038 19.0904 92.0008 19.2085 91.9963 19.3311C91.9918 19.4538 91.9843 19.5525 91.9753 19.6273H87.6548C87.6548 20.061 87.8334 20.402 88.1936 20.6503C88.5522 20.9 89.0144 21.0242 89.5817 21.0242C89.9314 21.0242 90.263 20.9868 90.5797 20.9105C90.8963 20.8357 91.1619 20.761 91.3795 20.6847L91.6196 22.1668C91.318 22.27 90.9968 22.3568 90.6562 22.4286C90.317 22.4989 89.9344 22.5348 89.5097 22.5348C88.9424 22.5348 88.4352 22.4615 87.9865 22.3164C87.5378 22.1713 87.1551 21.9545 86.8385 21.6673C86.5218 21.3801 86.2787 21.0257 86.1091 20.6009C85.9395 20.1777 85.854 19.6841 85.854 19.1188L85.857 19.1203ZM90.3185 18.4278C90.3185 18.2498 90.2945 18.0778 90.248 17.9133C90.2 17.7488 90.1249 17.6007 90.0214 17.4691C89.9179 17.3375 89.7858 17.2313 89.6252 17.152C89.4646 17.0728 89.2666 17.0324 89.031 17.0324C88.7953 17.0324 88.6078 17.0698 88.4427 17.1446C88.2776 17.2193 88.141 17.324 88.0315 17.4556C87.9234 17.5873 87.8379 17.7383 87.7764 17.9073C87.7148 18.0763 87.6743 18.2513 87.6563 18.4293H90.3185V18.4278Z" fill="#F32D18"/>
<path d="M98.6894 17.5106C98.5769 17.4822 98.4418 17.4537 98.2858 17.4253C98.1297 17.3969 97.9721 17.3715 97.8115 17.3476C97.651 17.3236 97.4949 17.3072 97.3448 17.2982C97.1933 17.2892 97.0657 17.2847 96.9622 17.2847C96.716 17.2847 96.4759 17.2967 96.2403 17.3206C96.0047 17.3446 95.7631 17.3894 95.5185 17.4552V22.3818H93.7627V16.1855C94.2249 16.0165 94.6991 15.8804 95.1868 15.7757C95.6731 15.6725 96.2418 15.6201 96.8931 15.6201C96.9877 15.6201 97.1227 15.6246 97.2968 15.6336C97.4709 15.6426 97.6585 15.659 97.8566 15.6829C98.0547 15.7069 98.2557 15.7353 98.4583 15.7682C98.6609 15.8011 98.8425 15.846 99.0031 15.9028L98.6909 17.5121L98.6894 17.5106Z" fill="#F32D18"/>
<path d="M37.6987 17.9579C37.6987 18.8433 37.5471 19.5821 37.247 20.1744C36.9454 20.7666 36.5372 21.2422 36.0209 21.5967C35.5047 21.9527 34.8939 22.2054 34.1886 22.355C33.4818 22.5045 32.7254 22.5808 31.9166 22.5808C31.2668 22.5808 30.5915 22.5449 29.8937 22.4746C29.1958 22.4028 28.5055 22.2966 27.8242 22.1546V7.90283C28.3795 7.80861 28.9902 7.72485 29.6566 7.65306C30.3229 7.58127 30.9817 7.54688 31.6314 7.54688C32.742 7.54688 33.6454 7.66204 34.3447 7.89087C35.0425 8.1197 35.5902 8.42032 35.9864 8.79272C36.3826 9.16364 36.6527 9.57942 36.7953 10.0371C36.9379 10.4962 37.0099 10.9539 37.0099 11.413C37.0099 12.1085 36.8388 12.7262 36.4982 13.2631C36.1575 13.8 35.7013 14.2278 35.1295 14.5434C36.129 14.9068 36.8073 15.3974 37.1645 16.0136C37.5216 16.6298 37.7002 17.2789 37.7002 17.9579H37.6987ZM31.8941 13.5473C32.6399 13.5473 33.2027 13.3858 33.5838 13.0612C33.965 12.7367 34.1541 12.291 34.1541 11.7211C34.1541 11.3742 34.0986 11.093 33.9875 10.8791C33.8765 10.6652 33.7264 10.4992 33.5358 10.3811C33.3452 10.2629 33.1231 10.1836 32.8695 10.1433C32.6159 10.1044 32.3533 10.0834 32.0847 10.0834C31.8626 10.0834 31.6329 10.0909 31.3943 10.1074C31.1572 10.1238 30.9426 10.1463 30.752 10.1792V13.5458H31.8941V13.5473ZM30.7505 15.9657V19.95C30.9561 19.9814 31.1827 20.0054 31.4289 20.0218C31.675 20.0383 31.9166 20.0457 32.1552 20.0457C32.4883 20.0457 32.8125 20.0188 33.1306 19.9635C33.4473 19.9081 33.7294 19.8049 33.9755 19.6554C34.2216 19.5058 34.4227 19.292 34.5818 19.0153C34.7394 18.7386 34.8189 18.3871 34.8189 17.9594C34.8189 17.2474 34.5923 16.7374 34.1406 16.4293C33.6889 16.1212 33.0811 15.9672 32.3203 15.9672H30.7505V15.9657Z" fill="#F2F2F2"/>
<path d="M41.1892 7.71289H38.5811V10.1313H41.1892V7.71289Z" fill="#F2F2F2"/>
<path d="M42.9033 7.71289V10.1328H42.9108V22.3924H45.8612V10.1328H49.7389V7.71289H42.9033Z" fill="#F2F2F2"/>
</g>
</g>
<defs>
<filter id="filter0_d_198_7250" x="-27.999" y="-22" width="83.646" height="92.999" filterUnits="userSpaceOnUse" color-interpolation-filters="sRGB">
<feFlood flood-opacity="0" result="BackgroundImageFix"/>
<feColorMatrix in="SourceAlpha" type="matrix" values="0 0 0 0 0 0 0 0 0 0 0 0 0 0 0 0 0 0 127 0" result="hardAlpha"/>
<feOffset dx="4" dy="10"/>
<feGaussianBlur stdDeviation="16"/>
<feColorMatrix type="matrix" values="0 0 0 0 0.0862745 0 0 0 0 0.0862745 0 0 0 0 0.0862745 0 0 0 0.47 0"/>
<feBlend mode="normal" in2="BackgroundImageFix" result="effect1_dropShadow_198_7250"/>
<feBlend mode="normal" in="SourceGraphic" in2="effect1_dropShadow_198_7250" result="shape"/>
</filter>
<filter id="filter1_d_198_7250" x="-0.175781" y="-14.4531" width="135.179" height="79.0342" filterUnits="userSpaceOnUse" color-interpolation-filters="sRGB">
<feFlood flood-opacity="0" result="BackgroundImageFix"/>
<feColorMatrix in="SourceAlpha" type="matrix" values="0 0 0 0 0 0 0 0 0 0 0 0 0 0 0 0 0 0 127 0" result="hardAlpha"/>
<feOffset dx="4" dy="10"/>
<feGaussianBlur stdDeviation="16"/>
<feColorMatrix type="matrix" values="0 0 0 0 0.0470588 0 0 0 0 0.0470588 0 0 0 0 0.0470588 0 0 0 0.53 0"/>
<feBlend mode="normal" in2="BackgroundImageFix" result="effect1_dropShadow_198_7250"/>
<feBlend mode="normal" in="SourceGraphic" in2="effect1_dropShadow_198_7250" result="shape"/>
</filter>
<linearGradient id="paint0_linear_198_7250" x1="0.436841" y1="29.5187" x2="17.2153" y2="6.49197" gradientUnits="userSpaceOnUse">
<stop stop-color="#F32D18"/>
<stop offset="1" stop-color="#5D000B"/>
</linearGradient>
<linearGradient id="paint1_linear_198_7250" x1="12.871" y1="12.428" x2="18.4045" y2="3.82764" gradientUnits="userSpaceOnUse">
<stop stop-color="#C1000F"/>
<stop offset="1" stop-color="#F32D18"/>
</linearGradient>
<clipPath id="clip0_198_7250">
<rect width="99" height="29" fill="white"/>
</clipPath>
</defs>
</svg>
